<?xml version="1.0" encoding="UTF-8" standalone="no"?>
<!DOCTYPE svg PUBLIC "-//W3C//DTD SVG 1.1//EN" "http://www.w3.org/Graphics/SVG/1.1/DTD/svg11.dtd">
<!-- Created with Vectornator (http://vectornator.io/) -->
<svg height="100%" stroke-miterlimit="10" style="fill-rule:nonzero;clip-rule:evenodd;stroke-linecap:round;stroke-linejoin:round;" version="1.1" viewBox="0 0 479.938 407.166" width="100%" xml:space="preserve" xmlns="http://www.w3.org/2000/svg" xmlns:vectornator="http://vectornator.io" xmlns:xlink="http://www.w3.org/1999/xlink">
<defs/>
<clipPath id="ArtboardFrame">
<rect height="407.166" width="479.938" x="0" y="0"/>
</clipPath>
<g clip-path="url(#ArtboardFrame)" id="Untitled" vectornator:layerName="Untitled">
<g opacity="1" vectornator:layerName="path">
<clipPath clip-rule="nonzero" id="ClipPath">
<path d="M-48.031-84.4168L527.969-84.4168L527.969 491.583L-48.031 491.583L-48.031-84.4168Z"/>
</clipPath>
<g clip-path="url(#ClipPath)">
<path d="M309.489 271.852C315.468 253.309 321.457 234.767 327.447 216.224C321.997 215.764 319.581 217.224 314.422 216.101C322.221 210.886 340.303 199.412 349.282 205.874C340.876 231.923 333.021 260.029 324.615 286.079C277.54 285.63 257.019 303.678 241.792 318.354C256.828 287.787 281.877 277.268 309.489 271.852" fill="#424242" fill-rule="nonzero" opacity="1" stroke="none" vectornator:layerName="path"/>
<path d="M328.762 292.462C336.291 269.11 343.832 245.757 351.373 222.405L370.455 223.765C361.903 250.241 351.036 280.741 342.484 307.217C307.972 302.216 277.551 308.296 249.715 321.343C262.189 304.7 293.43 290.248 328.762 292.462Z" fill="#0099ff" fill-rule="nonzero" opacity="1" stroke="none" vectornator:layerName="path"/>
<path d="M350.384 313.578C370.612 241.757 349.912 315.331 370.14 243.521L387.964 244.892C379.299 271.75 372.388 302.61 363.712 329.457C334.606 323.186 299.443 318.86 259.346 323.568C278.574 314.376 309.961 310.015 350.384 313.578" fill="#424242" fill-rule="nonzero" opacity="1" stroke="none" vectornator:layerName="path"/>
<path d="M170.667 271.852C164.677 253.309 158.699 234.767 152.709 216.224C158.148 215.764 160.575 217.224 165.722 216.101C157.935 210.886 139.842 199.412 130.874 205.874C139.28 231.923 147.135 260.029 155.541 286.079C202.616 285.63 223.125 303.678 238.364 318.354C223.328 287.787 198.267 277.268 170.667 271.852" fill="#424242" fill-rule="nonzero" opacity="1" stroke="none" vectornator:layerName="path"/>
<path d="M151.394 292.462C143.853 269.11 136.313 245.757 128.783 222.405L109.69 223.765C118.242 250.241 129.12 280.741 137.661 307.217C172.184 302.216 202.594 308.296 230.441 321.343C217.967 304.7 186.726 290.248 151.394 292.462Z" fill="#0099ff" fill-rule="nonzero" opacity="1" stroke="none" vectornator:layerName="path"/>
<path d="M129.772 313.578C109.544 241.757 130.244 315.331 110.016 243.521L92.181 244.892C100.857 271.75 107.768 302.61 116.432 329.457C145.539 323.186 180.713 318.86 220.81 323.568C201.571 314.376 170.183 310.015 129.772 313.578Z" fill="#424242" fill-rule="nonzero" opacity="1" stroke="none" vectornator:layerName="path"/>
<path d="M228.126 121.32C221.102 124.871 213.933 129.052 208.628 136.604C203.313 144.167 199.66 155.315 199.481 172.902L199.492 173.194L199.492 214.92C199.492 217.179 197.649 219.022 195.39 219.022C193.12 219.022 191.288 217.179 191.288 214.92L191.288 173.194C191.288 173.048 191.3 172.902 191.311 172.756C191.524 153.292 195.761 140.683 201.942 131.884C208.28 122.859 216.461 118.038 224.44 114.015C226.452 112.993 228.913 113.802 229.935 115.825C230.947 117.836 230.138 120.297 228.126 121.32M260.412 181.678L297.7 181.678L297.7 167.732L260.412 167.732C256.929 167.732 254.075 164.889 254.075 161.405C254.075 157.922 256.929 155.078 260.412 155.078L297.599 155.078C295.924 124.86 270.695 100.665 240.072 100.665L240.072 100.664C208.381 100.664 182.455 126.589 182.455 158.28L182.455 217.74C182.455 246.846 204.335 271.097 232.464 274.851L232.464 297.675L247.691 297.675L247.691 274.851C274.774 271.232 296.07 248.611 297.599 220.943L260.412 220.943C256.929 220.943 254.075 218.1 254.075 214.616C254.075 211.132 256.929 208.278 260.412 208.278L297.7 208.278L297.7 194.343L260.412 194.343C256.929 194.343 254.075 191.489 254.075 188.005C254.075 184.521 256.929 181.678 260.412 181.678" fill="#0099ff" fill-rule="nonzero" opacity="1" stroke="none" vectornator:layerName="path"/>
<path d="M81.313 348.252L97.184 348.252L97.184 382.083L106.944 382.083L106.944 348.252L122.784 348.252L122.784 338.492L81.313 338.492L81.313 348.252Z" fill="#0099ff" fill-rule="nonzero" opacity="1" stroke="none" vectornator:layerName="path"/>
<path d="M165.907 355.424L136.035 355.424L136.035 338.493L126.245 338.493L126.245 382.084L136.035 382.084L136.035 365.184L165.907 365.184L165.907 382.084L175.667 382.084L175.667 338.493L165.907 338.493L165.907 355.424Z" fill="#0099ff" fill-rule="nonzero" opacity="1" stroke="none" vectornator:layerName="path"/>
<path d="M222.252 369.736L194.407 338.493L182.621 338.493L182.621 382.084L192.381 382.084L192.381 350.841L220.194 382.084L232.012 382.084L232.012 338.493L222.252 338.493L222.252 369.736Z" fill="#0099ff" fill-rule="nonzero" opacity="1" stroke="none" vectornator:layerName="path"/>
<path d="M238.997 382.084L248.757 382.084L248.757 338.493L238.997 338.493L238.997 382.084Z" fill="#0099ff" fill-rule="nonzero" opacity="1" stroke="none" vectornator:layerName="path"/>
<path d="M37.6909 338.492L27.9309 338.492L27.9309 338.649L27.9309 348.409L27.9309 372.323L27.9309 382.083L37.6909 382.083L77.353 382.083L77.353 372.323L37.6909 372.323L37.6909 365.245L73.362 365.245L73.362 355.486L37.6909 355.486L37.6909 348.409L77.353 348.409L77.353 338.649L37.6909 338.649L37.6909 338.492Z" fill="#0099ff" fill-rule="nonzero" opacity="1" stroke="none" vectornator:layerName="path"/>
<path d="M303.885 367.896L294.125 367.896C294.125 369.123 293.693 370.167 292.831 371.03C291.969 371.892 290.924 372.323 289.698 372.323L268.681 372.323C267.455 372.323 266.41 371.892 265.548 371.03C264.685 370.167 264.254 369.123 264.254 367.896L264.254 352.836C264.254 351.61 264.685 350.57 265.548 349.718C266.41 348.867 267.455 348.44 268.681 348.44L289.698 348.44C290.924 348.44 291.969 348.867 292.831 349.718C293.693 350.57 294.125 351.61 294.125 352.836L303.885 352.836C303.885 350.903 303.521 349.073 302.794 347.349C301.235 343.856 298.709 341.331 295.217 339.771C293.491 339.022 291.651 338.649 289.698 338.649L268.681 338.649C266.727 338.649 264.898 339.022 263.194 339.771C259.68 341.331 257.155 343.856 255.617 347.349C254.868 349.073 254.494 350.903 254.494 352.836L254.494 367.896C254.494 369.85 254.868 371.69 255.617 373.415C257.155 376.908 259.68 379.432 263.194 380.992C264.898 381.72 266.727 382.083 268.681 382.083L289.698 382.083C291.651 382.083 293.491 381.72 295.217 380.992C298.709 379.432 301.235 376.908 302.794 373.415C303.521 371.69 303.885 369.85 303.885 367.896" fill="#0099ff" fill-rule="nonzero" opacity="1" stroke="none" vectornator:layerName="path"/>
<path d="M324.555 363.132L331.45 350.84L338.332 363.132L324.555 363.132ZM327.177 338.492L302.763 382.083L313.926 382.083L319.081 372.892L343.796 372.892L348.942 382.083L360.105 382.083L335.69 338.492L327.177 338.492Z" fill="#0099ff" fill-rule="nonzero" opacity="1" stroke="none" vectornator:layerName="path"/>
<path d="M370.66 348.736C371.335 348.456 372.006 348.316 372.671 348.316L393.718 348.316C394.384 348.316 395.059 348.456 395.745 348.736C396.431 349.017 397.002 349.423 397.46 349.953C397.917 350.482 398.146 351.122 398.146 351.87L407.906 351.87C407.906 349.998 407.52 348.243 406.752 346.601C405.109 343.274 402.563 340.925 399.113 339.553C397.429 338.889 395.631 338.556 393.718 338.556L372.671 338.556C370.779 338.556 368.981 338.889 367.277 339.553C363.847 340.925 361.311 343.274 359.668 346.601C358.878 348.243 358.483 349.998 358.483 351.87C358.483 353.74 358.878 355.497 359.668 357.139C361.311 360.466 363.847 362.814 367.277 364.185C368.981 364.851 370.779 365.184 372.671 365.184L393.718 365.184C394.384 365.184 395.059 365.325 395.745 365.604C396.431 365.886 397.002 366.291 397.46 366.82C397.917 367.35 398.146 367.99 398.146 368.739C398.146 369.508 397.917 370.158 397.46 370.686C397.002 371.217 396.431 371.617 395.745 371.887C395.059 372.157 394.384 372.293 393.718 372.293L372.671 372.293C372.006 372.293 371.335 372.157 370.66 371.887C369.984 371.617 369.417 371.217 368.96 370.686C368.503 370.158 368.274 369.508 368.274 368.739L358.483 368.739C358.483 370.609 358.878 372.366 359.668 374.008C361.311 377.335 363.847 379.683 367.277 381.054C368.981 381.741 370.779 382.084 372.671 382.084L393.718 382.084C395.631 382.084 397.429 381.741 399.113 381.054C402.563 379.683 405.109 377.335 406.752 374.008C407.52 372.366 407.906 370.609 407.906 368.739C407.906 366.888 407.52 365.142 406.752 363.5C405.109 360.175 402.563 357.824 399.113 356.454C397.429 355.767 395.631 355.424 393.718 355.424L372.671 355.424C372.006 355.424 371.335 355.283 370.66 355.004C369.984 354.722 369.417 354.322 368.96 353.803C368.503 353.284 368.274 352.64 368.274 351.87C368.274 351.122 368.503 350.482 368.96 349.953C369.417 349.423 369.984 349.017 370.66 348.736" fill="#0099ff" fill-rule="nonzero" opacity="1" stroke="none" vectornator:layerName="path"/>
<path d="M410.742 338.492L410.742 348.252L426.613 348.252L426.613 382.083L436.373 382.083L436.373 348.252L452.213 348.252L452.213 338.492L410.742 338.492Z" fill="#0099ff" fill-rule="nonzero" opacity="1" stroke="none" vectornator:layerName="path"/>
<path d="M335.106 148.068C334.526 140.309 334.993 132.473 334.97 124.671C334.939 114.115 333.233 103.836 329.773 93.8552C329.428 92.8582 329.076 91.8642 328.663 90.6862L332.363 90.6862C320.634 57.3052 285.62 25.5422 238.108 26.4422C192.056 27.3162 158.882 58.8462 147.784 90.7072L151.335 90.7072C151.353 90.9192 151.379 90.9892 151.36 91.0432C151.232 91.4222 151.097 91.7982 150.959 92.1732C147.619 101.287 145.754 110.698 145.264 120.389C144.754 130.487 145.918 140.62 144.631 150.702C144.632 164.94 144.629 179.177 144.647 193.414C144.647 193.927 144.775 194.477 144.984 194.947C147.576 200.788 153.387 204.359 159.792 204.083C160.241 204.063 160.691 204.08 161.121 204.08C161.592 206.889 162.792 207.9 165.547 207.901C168.081 207.902 170.615 207.905 173.149 207.9C176.047 207.895 177.435 206.501 177.435 203.603C177.436 182.598 177.435 161.592 177.434 140.586C177.434 140.253 177.443 139.918 177.414 139.587C177.251 137.721 175.793 136.274 173.919 136.247C170.852 136.203 167.784 136.212 164.717 136.246C163.138 136.264 161.828 137.302 161.37 138.796C161.246 139.2 161.188 139.624 161.104 140.019L157.541 140.019L157.541 138.79C157.541 134.388 157.561 129.987 157.537 125.586C157.477 114.342 159.567 103.522 163.876 93.1322C164.887 90.6962 164.873 90.6322 167.463 90.7162C168.527 90.7502 169.029 90.3632 169.489 89.4422C173.413 81.5892 178.507 74.5652 184.817 68.4662C198.055 55.6692 213.829 48.2082 232.167 46.3212C244.583 45.0442 256.675 46.5922 268.306 51.1292C286.677 58.2962 300.559 70.6312 309.862 88.0132C310.944 90.0362 312.022 91.1612 314.344 90.6952C314.953 90.5722 315.292 90.8602 315.549 91.4452C319.726 100.95 322.145 110.877 322.485 121.255C322.68 127.184 322.583 133.122 322.612 139.056C322.614 139.348 322.57 139.64 322.543 139.997L319.062 139.997C318.322 136.925 317.404 136.211 314.244 136.211C311.777 136.211 309.309 136.209 306.842 136.212C304.124 136.216 302.701 137.623 302.701 140.339C302.697 161.477 302.697 182.615 302.7 203.753C302.7 206.396 304.141 207.858 306.762 207.873C309.296 207.887 311.83 207.876 314.364 207.875C317.357 207.874 318.359 207.078 319.007 204.192C319.019 204.136 319.089 204.093 319.113 204.066C319.175 204.046 319.207 204.027 319.239 204.028C319.638 204.037 320.037 204.056 320.436 204.059C327.119 204.106 331.985 201.138 335.021 195.202C335.325 194.609 335.478 193.872 335.481 193.202C335.512 185.666 335.618 178.129 335.468 170.596C335.318 163.09 335.669 155.596 335.106 148.068" fill="#424242" fill-rule="nonzero" opacity="1" stroke="none" vectornator:layerName="path"/>
<path d="M142.523 150.193C139.932 150.053 137.921 152.069 137.917 154.862C137.904 162.19 137.912 169.519 137.912 176.848C137.912 179.746 137.893 182.645 137.919 185.543C137.94 187.976 139.48 189.783 141.72 190.08C143.048 190.256 143.153 190.167 143.153 188.844C143.153 176.385 143.153 163.926 143.153 151.467L143.153 150.31C142.847 150.252 142.686 150.202 142.523 150.193" fill="#424242" fill-rule="nonzero" opacity="1" stroke="none" vectornator:layerName="path"/>
<path d="M342.213 154.409C342.1 151.682 339.563 149.657 337.079 150.316C337.055 150.529 337.007 150.757 337.007 150.985C337.004 163.721 337.009 176.457 336.992 189.192C336.991 189.897 337.231 190.118 337.92 190.104C340.386 190.055 342.22 188.097 342.222 185.415C342.229 176.28 342.225 167.144 342.224 158.009C342.224 156.809 342.263 155.607 342.213 154.409" fill="#424242" fill-rule="nonzero" opacity="1" stroke="none" vectornator:layerName="path"/>
</g>
</g>
</g>
</svg>
